<svg version="1.2" xmlns="http://www.w3.org/2000/svg" viewBox="0 0 24 24" width="24" height="24">
	<defs>
		<clipPath clipPathUnits="userSpaceOnUse" id="cp1">
			<path d="m1 2h21.02v21h-21.02z"/>
		</clipPath>
	</defs>
	<style>
		.s0 { fill: #ffffff } 
	</style>
	<g id="Clip-Path" clip-path="url(#cp1)">
		<g>
			<path class="s0" d="m2.27 15.76h9.84v1.81h6.15v-1.8h2.45c0.15 2.15 0.17 4.06-2.04 5.52q-0.03 0.02-0.11 0.1 0.41 0.33 0.81 0.66c-0.36 0.34-0.65 0.62-0.98 0.93-0.29-0.3-0.6-0.64-0.94-0.96-0.1-0.09-0.28-0.13-0.43-0.14-0.24-0.01-0.48 0.02-0.72 0.03q-4.79 0-9.59 0c-0.15 0-0.31 0.03-0.45-0.02-0.43-0.12-0.7 0.07-0.95 0.38q-0.34 0.38-0.69 0.73c-0.31-0.32-0.58-0.61-0.89-0.93q0.32-0.28 0.76-0.67c-0.2-0.14-0.35-0.24-0.49-0.35q-1.61-1.24-1.72-3.26c-0.04-0.66-0.01-1.33-0.01-2.03z"/>
			<path class="s0" d="m2.28 10.79q-0.02-0.18-0.02-0.34 0-2.61 0-5.22c0-1.91 1.33-3.24 3.24-3.23 0.64 0 1.3-0.01 1.92 0.14 1.09 0.25 1.78 1.01 2.11 2.08 0.07 0.21 0.15 0.31 0.38 0.37 1.28 0.35 2.19 1.55 2.2 2.89q0 0.32 0 0.67h-6.08c-0.29-1.54 0.54-3.12 2.28-3.61-0.15-0.69-0.83-1.27-1.54-1.29q-0.8-0.03-1.6 0c-0.93 0.03-1.67 0.88-1.67 1.9q-0.01 2.62-0.01 5.25 0 0.17 0 0.39h-1.22z"/>
			<path class="s0" d="m12.09 14.53q-0.18 0-0.32 0-4.69 0-9.38 0c-0.68 0-1.16-0.32-1.33-0.86-0.26-0.82 0.32-1.61 1.21-1.62q1.41-0.01 2.82 0 3.31 0 6.63 0 0.17 0 0.37 0v2.48z"/>
			<path class="s0" d="m17.02 16.37h-3.66q-0.01-0.17-0.01-0.32 0-1.91 0-3.81c0-0.92 0.5-1.42 1.41-1.43q0.51 0 1.02 0.01c0.76 0.02 1.26 0.53 1.26 1.3q0 1.98 0 3.96 0 0.13-0.02 0.29z"/>
			<path class="s0" d="m18.28 14.52v-2.47q0.89 0 1.77 0c0.31 0 0.62-0.02 0.92 0.02 0.65 0.11 1.07 0.65 1.05 1.27-0.03 0.61-0.48 1.14-1.12 1.17-0.86 0.04-1.72 0.01-2.62 0.01z"/>
		</g>
	</g>
</svg>