<svg version="1.2" xmlns="http://www.w3.org/2000/svg" viewBox="0 0 24 24" width="24" height="24">
	<defs>
		<clipPath clipPathUnits="userSpaceOnUse" id="cp1">
			<path d="m1 4h22v17h-22z"/>
		</clipPath>
	</defs>
	<style>
		.s0 { fill: #ffffff } 
	</style>
	<g id="Clip-Path" clip-path="url(#cp1)">
		<g>
			<path class="s0" d="m12.01 19.46q-4.5 0-8.99 0-0.45-0.01-0.45 0.44 0.01 0.11 0 0.23 0 0.14-0.03 0.28c-0.06 0.33-0.38 0.59-0.76 0.59-0.38-0.01-0.7-0.29-0.75-0.65q-0.02-0.13-0.03-0.26-0.01-2.64 0.01-5.29 0.02-1.54 1.12-2.66 0.66-0.67 1.56-0.97 0.71-0.23 1.46-0.21 6.92-0.01 13.84 0 2.03 0 3.25 1.6 0.6 0.79 0.72 1.78 0.04 0.33 0.04 0.66 0 2.57 0 5.13c0 0.27-0.07 0.51-0.29 0.69q-0.36 0.28-0.78 0.12-0.41-0.17-0.48-0.6-0.02-0.22-0.02-0.44-0.01-0.36-0.31-0.43-0.06-0.01-0.13-0.01-4.49 0-8.98 0z"/>
			<path class="s0" d="m11.9 4q2.92 0 5.84 0c0.65 0 1.25 0.14 1.78 0.54 0.68 0.51 1.07 1.18 1.1 2.02q0.03 1.07 0.02 2.15 0 0.69 0 1.38 0 0.06-0.01 0.12-0.05 0.19-0.23 0.15c-0.14-0.03-0.28-0.08-0.42-0.1q-0.5-0.05-1-0.07c-0.22-0.02-0.29-0.06-0.32-0.27-0.1-0.68-0.74-1.29-1.56-1.28q-1.37 0-2.74 0c-0.68 0-1.26 0.4-1.49 1.02q-0.04 0.14-0.06 0.29c-0.03 0.17-0.1 0.23-0.27 0.23q-0.54 0.01-1.08 0c-0.17 0-0.23-0.06-0.26-0.25q-0.06-0.4-0.32-0.71-0.46-0.57-1.19-0.58-1.42-0.01-2.83 0c-0.79 0-1.41 0.61-1.51 1.28-0.04 0.21-0.1 0.25-0.32 0.27q-0.56 0.03-1.11 0.09c-0.11 0.01-0.22 0.06-0.33 0.08q-0.17 0.03-0.21-0.14-0.02-0.07-0.02-0.14-0.01-1.66 0-3.31 0.04-1.74 1.63-2.52c0.42-0.2 0.87-0.25 1.34-0.25q2.78 0 5.57 0z"/>
		</g>
	</g>
</svg>