<svg version="1.2" xmlns="http://www.w3.org/2000/svg" viewBox="0 0 69 30" width="69" height="30">
	<defs>
		<clipPath clipPathUnits="userSpaceOnUse" id="cp1">
			<path d="m0 0h30v30h-30z"/>
		</clipPath>
		<clipPath clipPathUnits="userSpaceOnUse" id="cp2">
			<path d="m36 6h18v18h-18z"/>
		</clipPath>
		<clipPath clipPathUnits="userSpaceOnUse" id="cp3">
			<path d="m60 10.8h8.4v8.4h-8.4z"/>
		</clipPath>
	</defs>
	<style>
		.s0 { fill: #666666 } 
		.s1 { fill: #141414 } 
		.s2 { fill: #333333 } 
	</style>
	<g id="Clip-Path" clip-path="url(#cp1)">
		<g>
			<path class="s0" d="m15 30.02c8.28 0 15-6.72 15-15 0-8.29-6.72-15-15-15-8.28 0-15 6.71-15 15 0 8.28 6.72 15 15 15z"/>
			<path class="s1" d="m0 45c8.28 0 15-6.72 15-15 0-8.28-6.72-15-15-15-8.28 0-15 6.72-15 15 0 8.28 6.72 15 15 15z"/>
			<path class="s1" d="m30 45c8.28 0 15-6.72 15-15 0-8.28-6.72-15-15-15-8.28 0-15 6.72-15 15 0 8.28 6.72 15 15 15z"/>
			<path class="s1" d="m0 15c8.28 0 15-6.72 15-15 0-8.28-6.72-15-15-15-8.28 0-15 6.72-15 15 0 8.28 6.72 15 15 15z"/>
			<path class="s1" d="m30 15c8.28 0 15-6.72 15-15 0-8.28-6.72-15-15-15-8.28 0-15 6.72-15 15 0 8.28 6.72 15 15 15z"/>
		</g>
	</g>
	<g id="Clip-Path" clip-path="url(#cp2)">
		<g>
			<path class="s2" d="m45 24.01c4.97 0 9-4.03 9-9 0-4.97-4.03-9-9-9-4.97 0-9 4.03-9 9 0 4.97 4.03 9 9 9z"/>
			<path class="s1" d="m36 33c4.97 0 9-4.03 9-9 0-4.97-4.03-9-9-9-4.97 0-9 4.03-9 9 0 4.97 4.03 9 9 9z"/>
			<path class="s1" d="m54 33c4.97 0 9-4.03 9-9 0-4.97-4.03-9-9-9-4.97 0-9 4.03-9 9 0 4.97 4.03 9 9 9z"/>
			<path class="s1" d="m36 15c4.97 0 9-4.03 9-9 0-4.97-4.03-9-9-9-4.97 0-9 4.03-9 9 0 4.97 4.03 9 9 9z"/>
			<path class="s1" d="m54 15c4.97 0 9-4.03 9-9 0-4.97-4.03-9-9-9-4.97 0-9 4.03-9 9 0 4.97 4.03 9 9 9z"/>
		</g>
	</g>
	<g id="Clip-Path" clip-path="url(#cp3)">
		<g>
			<path class="s2" d="m64.2 19.2c2.32 0 4.2-1.88 4.2-4.2 0-2.31-1.88-4.2-4.2-4.2-2.32 0-4.2 1.89-4.2 4.2 0 2.32 1.88 4.2 4.2 4.2z"/>
			<path class="s1" d="m60 23.4c2.32 0 4.2-1.88 4.2-4.2 0-2.32-1.88-4.2-4.2-4.2-2.32 0-4.2 1.88-4.2 4.2 0 2.32 1.88 4.2 4.2 4.2z"/>
			<path class="s1" d="m68.4 23.4c2.32 0 4.2-1.88 4.2-4.2 0-2.32-1.88-4.2-4.2-4.2-2.32 0-4.2 1.88-4.2 4.2 0 2.32 1.88 4.2 4.2 4.2z"/>
			<path class="s1" d="m60 15c2.32 0 4.2-1.88 4.2-4.2 0-2.32-1.88-4.2-4.2-4.2-2.32 0-4.2 1.88-4.2 4.2 0 2.32 1.88 4.2 4.2 4.2z"/>
			<path class="s1" d="m68.4 15c2.32 0 4.2-1.88 4.2-4.2 0-2.32-1.88-4.2-4.2-4.2-2.32 0-4.2 1.88-4.2 4.2 0 2.32 1.88 4.2 4.2 4.2z"/>
		</g>
	</g>
</svg>