<svg version="1.2" xmlns="http://www.w3.org/2000/svg" viewBox="0 0 24 24" width="24" height="24">
	<style>
		.s0 { fill: #ffffff } 
	</style>
	<path fill-rule="evenodd" class="s0" d="m4.8 19.8v-15.6h-0.3c-0.5 0-0.9-0.4-0.9-0.9 0-0.5 0.4-0.9 0.9-0.9h15c0.5 0 0.9 0.4 0.9 0.9 0 0.5-0.4 0.9-0.9 0.9h-0.3v15.6h0.3c0.5 0 0.9 0.4 0.9 0.9 0 0.5-0.4 0.9-0.9 0.9h-4.2c-0.5 0-0.9-0.4-0.9-0.9v-3c0-0.5-0.4-0.9-0.9-0.9h-3c-0.5 0-0.9 0.4-0.9 0.9v3c0 0.5-0.4 0.9-0.9 0.9h-4.2c-0.5 0-0.9-0.4-0.9-0.9 0-0.5 0.4-0.9 0.9-0.9zm3.6-12c0 0.33 0.27 0.6 0.6 0.6h1.2c0.33 0 0.6-0.27 0.6-0.6v-1.2c0-0.33-0.27-0.6-0.6-0.6h-1.2c-0.33 0-0.6 0.27-0.6 0.6zm0.6 3c-0.33 0-0.6 0.27-0.6 0.6v1.2c0 0.33 0.27 0.6 0.6 0.6h1.2c0.33 0 0.6-0.27 0.6-0.6v-1.2c0-0.33-0.27-0.6-0.6-0.6zm4.2-3c0 0.33 0.27 0.6 0.6 0.6h1.2c0.33 0 0.6-0.27 0.6-0.6v-1.2c0-0.33-0.27-0.6-0.6-0.6h-1.2c-0.33 0-0.6 0.27-0.6 0.6zm0.6 3c-0.33 0-0.6 0.27-0.6 0.6v1.2c0 0.33 0.27 0.6 0.6 0.6h1.2c0.33 0 0.6-0.27 0.6-0.6v-1.2c0-0.33-0.27-0.6-0.6-0.6z"/>
</svg>