<svg version="1.2" xmlns="http://www.w3.org/2000/svg" viewBox="0 0 82 82" width="82" height="82">
	<defs>
		<linearGradient id="g1" x2="1" gradientUnits="userSpaceOnUse" gradientTransform="matrix(79,-92,92,79,6.75,86.5)">
			<stop offset="0" stop-color="#a685fa" stop-opacity="1"/>
			<stop offset=".324" stop-color="#a685fa" stop-opacity="0"/>
		</linearGradient>
		<linearGradient id="g2" x2="1" gradientUnits="userSpaceOnUse" gradientTransform="matrix(-75,92.5,-92.5,-75,81.75,-10.5)">
			<stop offset="0" stop-color="#a685fa" stop-opacity="1"/>
			<stop offset=".577" stop-color="#a685fa" stop-opacity="0"/>
		</linearGradient>
		<linearGradient id="g3" x2="1" gradientUnits="userSpaceOnUse" gradientTransform="matrix(68.5,58.5,-58.5,68.5,3.25,13.5)">
			<stop offset="0" stop-color="#a685fa" stop-opacity="1"/>
			<stop offset=".324" stop-color="#a685fa" stop-opacity="0"/>
		</linearGradient>
		<linearGradient id="g4" x2="1" gradientUnits="userSpaceOnUse" gradientTransform="matrix(-72,-51,51,-72,84.25,86)">
			<stop offset="0" stop-color="#a685fa" stop-opacity="1"/>
			<stop offset=".577" stop-color="#a685fa" stop-opacity="0"/>
		</linearGradient>
	</defs>
	<style>
		.s0 { fill: none;stroke: url(#g1) } 
		.s1 { fill: none;stroke: url(#g2) } 
		.s2 { fill: none;stroke: url(#g3) } 
		.s3 { fill: none;stroke: url(#g4) } 
		.s4 { fill: #a685fa } 
	</style>
	<path fill-rule="evenodd" class="s0" d="m41 0.5c22.37 0 40.5 18.13 40.5 40.5 0 22.37-18.13 40.5-40.5 40.5-22.37 0-40.5-18.13-40.5-40.5 0-22.37 18.13-40.5 40.5-40.5z"/>
	<path fill-rule="evenodd" class="s1" d="m41 0.5c22.37 0 40.5 18.13 40.5 40.5 0 22.37-18.13 40.5-40.5 40.5-22.37 0-40.5-18.13-40.5-40.5 0-22.37 18.13-40.5 40.5-40.5z"/>
	<path fill-rule="evenodd" class="s2" d="m41 10.5c16.84 0 30.5 13.66 30.5 30.5 0 16.84-13.66 30.5-30.5 30.5-16.84 0-30.5-13.66-30.5-30.5 0-16.84 13.66-30.5 30.5-30.5z"/>
	<path fill-rule="evenodd" class="s3" d="m41 10.5c16.84 0 30.5 13.66 30.5 30.5 0 16.84-13.66 30.5-30.5 30.5-16.84 0-30.5-13.66-30.5-30.5 0-16.84 13.66-30.5 30.5-30.5z"/>
	<path fill-rule="evenodd" class="s4" d="m25.7 28.68c0-0.71 0.57-1.28 1.28-1.28h17.85c0.7 0 1.27 0.57 1.27 1.28 0 0.7-0.57 1.27-1.27 1.27h-0.43v23.38c0 0.7-0.57 1.27-1.27 1.27h-2.55c-0.71 0-1.28-0.57-1.28-1.27v-4.25c0-0.71-0.57-1.28-1.27-1.28h-4.25c-0.71 0-1.28 0.57-1.28 1.28v4.25c0 0.7-0.57 1.27-1.27 1.27h-4.25c-0.71 0-1.28-0.57-1.28-1.27 0-0.71 0.57-1.28 1.28-1.28h0.42v-22.1h-0.42c-0.71 0-1.28-0.57-1.28-1.27zm5.1 6.37c0 0.47 0.38 0.85 0.85 0.85h1.7c0.47 0 0.85-0.38 0.85-0.85v-1.7c0-0.47-0.38-0.85-0.85-0.85h-1.7c-0.47 0-0.85 0.38-0.85 0.85zm0.85 4.25c-0.47 0-0.85 0.38-0.85 0.85v1.7c0 0.47 0.38 0.85 0.85 0.85h1.7c0.47 0 0.85-0.38 0.85-0.85v-1.7c0-0.47-0.38-0.85-0.85-0.85zm5.95-4.25c0 0.47 0.38 0.85 0.85 0.85h1.7c0.47 0 0.85-0.38 0.85-0.85v-1.7c0-0.47-0.38-0.85-0.85-0.85h-1.7c-0.47 0-0.85 0.38-0.85 0.85zm0.85 4.25c-0.47 0-0.85 0.38-0.85 0.85v1.7c0 0.47 0.38 0.85 0.85 0.85h1.7c0.47 0 0.85-0.38 0.85-0.85v-1.7c0-0.47-0.38-0.85-0.85-0.85z"/>
	<path fill-rule="evenodd" class="s4" d="m55.03 34.2c0.7 0 1.27 0.57 1.27 1.27 0 0.71-0.57 1.28-1.27 1.28h-0.43v15.3h0.43c0.7 0 1.27 0.57 1.27 1.27 0 0.71-0.57 1.28-1.27 1.28h-6.38c-0.94 0-1.7-0.76-1.7-1.7v-17.43c0-0.7 0.57-1.27 1.28-1.27zm-5.95 7.65c0 0.47 0.38 0.85 0.85 0.85h1.7c0.46 0 0.85-0.38 0.85-0.85v-1.7c0-0.47-0.39-0.85-0.85-0.85h-1.7c-0.47 0-0.85 0.38-0.85 0.85zm0.85 4.25c-0.47 0-0.85 0.38-0.85 0.85v1.7c0 0.47 0.38 0.85 0.85 0.85h1.7c0.46 0 0.85-0.38 0.85-0.85v-1.7c0-0.47-0.39-0.85-0.85-0.85z"/>
</svg>