<svg version="1.2" xmlns="http://www.w3.org/2000/svg" viewBox="0 0 82 82" width="82" height="82">
	<defs>
		<linearGradient id="g1" x2="1" gradientUnits="userSpaceOnUse" gradientTransform="matrix(79,-92,92,79,6.75,86.5)">
			<stop offset="0" stop-color="#a685fa" stop-opacity="1"/>
			<stop offset=".324" stop-color="#a685fa" stop-opacity="0"/>
		</linearGradient>
		<linearGradient id="g2" x2="1" gradientUnits="userSpaceOnUse" gradientTransform="matrix(-75,92.5,-92.5,-75,81.75,-10.5)">
			<stop offset="0" stop-color="#a685fa" stop-opacity="1"/>
			<stop offset=".577" stop-color="#a685fa" stop-opacity="0"/>
		</linearGradient>
		<linearGradient id="g3" x2="1" gradientUnits="userSpaceOnUse" gradientTransform="matrix(68.5,58.5,-58.5,68.5,3.25,13.5)">
			<stop offset="0" stop-color="#a685fa" stop-opacity="1"/>
			<stop offset=".324" stop-color="#a685fa" stop-opacity="0"/>
		</linearGradient>
		<linearGradient id="g4" x2="1" gradientUnits="userSpaceOnUse" gradientTransform="matrix(-72,-51,51,-72,84.25,86)">
			<stop offset="0" stop-color="#a685fa" stop-opacity="1"/>
			<stop offset=".577" stop-color="#a685fa" stop-opacity="0"/>
		</linearGradient>
	</defs>
	<style>
		.s0 { fill: none;stroke: url(#g1) } 
		.s1 { fill: none;stroke: url(#g2) } 
		.s2 { fill: none;stroke: url(#g3) } 
		.s3 { fill: none;stroke: url(#g4) } 
		.s4 { fill: #a685fa } 
	</style>
	<path fill-rule="evenodd" class="s0" d="m41 0.5c22.37 0 40.5 18.13 40.5 40.5 0 22.37-18.13 40.5-40.5 40.5-22.37 0-40.5-18.13-40.5-40.5 0-22.37 18.13-40.5 40.5-40.5z"/>
	<path fill-rule="evenodd" class="s1" d="m41 0.5c22.37 0 40.5 18.13 40.5 40.5 0 22.37-18.13 40.5-40.5 40.5-22.37 0-40.5-18.13-40.5-40.5 0-22.37 18.13-40.5 40.5-40.5z"/>
	<path fill-rule="evenodd" class="s2" d="m41 10.5c16.84 0 30.5 13.66 30.5 30.5 0 16.84-13.66 30.5-30.5 30.5-16.84 0-30.5-13.66-30.5-30.5 0-16.84 13.66-30.5 30.5-30.5z"/>
	<path fill-rule="evenodd" class="s3" d="m41 10.5c16.84 0 30.5 13.66 30.5 30.5 0 16.84-13.66 30.5-30.5 30.5-16.84 0-30.5-13.66-30.5-30.5 0-16.84 13.66-30.5 30.5-30.5z"/>
	<path class="s4" d="m41 27.19c0.59 0 1.06 0.47 1.06 1.06v3.19c0 0.58-0.47 1.06-1.06 1.06-0.59 0-1.06-0.48-1.06-1.06v-3.19c0-0.59 0.47-1.06 1.06-1.06z"/>
	<path class="s4" d="m34.63 41c-0.01-3.52 2.85-6.38 6.37-6.38 3.52 0 6.37 2.86 6.37 6.38 0 3.52-2.85 6.38-6.37 6.38-3.52 0-6.38-2.86-6.38-6.38z"/>
	<path class="s4" d="m50.77 32.74c0.41-0.42 0.41-1.09 0-1.51-0.42-0.41-1.09-0.41-1.51 0l-2.25 2.26c-0.41 0.41-0.41 1.08 0 1.5 0.42 0.41 1.09 0.41 1.5 0z"/>
	<path class="s4" d="m54.81 41c0 0.59-0.47 1.06-1.06 1.06h-3.19c-0.58 0-1.06-0.47-1.06-1.06 0-0.59 0.48-1.06 1.06-1.06h3.19c0.59 0 1.06 0.47 1.06 1.06z"/>
	<path class="s4" d="m49.26 50.77c0.42 0.41 1.09 0.41 1.51 0 0.41-0.42 0.41-1.09 0-1.51l-2.26-2.25c-0.41-0.41-1.08-0.41-1.5 0-0.41 0.42-0.41 1.09 0 1.5z"/>
	<path class="s4" d="m41 49.5c0.59 0 1.06 0.48 1.06 1.06v3.19c0 0.59-0.47 1.06-1.06 1.06-0.59 0-1.06-0.47-1.06-1.06v-3.19c0-0.58 0.47-1.06 1.06-1.06z"/>
	<path class="s4" d="m34.99 48.51c0.41-0.41 0.41-1.08 0-1.5-0.42-0.41-1.09-0.41-1.5 0l-2.26 2.25c-0.41 0.42-0.41 1.09 0 1.51 0.42 0.41 1.09 0.41 1.51 0z"/>
	<path class="s4" d="m32.5 41c0 0.59-0.48 1.06-1.06 1.06h-3.19c-0.59 0-1.06-0.47-1.06-1.06 0-0.59 0.47-1.06 1.06-1.06h3.19c0.58 0 1.06 0.47 1.06 1.06z"/>
	<path class="s4" d="m33.49 34.99c0.41 0.41 1.08 0.41 1.5 0 0.41-0.42 0.41-1.09 0-1.5l-2.25-2.26c-0.42-0.41-1.09-0.41-1.51 0-0.41 0.42-0.41 1.09 0 1.51z"/>
</svg>